<?xml version="1.0" encoding="utf-8"?>
<!-- Generator: Adobe Illustrator 16.0.0, SVG Export Plug-In . SVG Version: 6.00 Build 0)  -->
<!DOCTYPE svg PUBLIC "-//W3C//DTD SVG 1.1//EN" "http://www.w3.org/Graphics/SVG/1.1/DTD/svg11.dtd">
<svg version="1.1" id="Layer_1" xmlns="http://www.w3.org/2000/svg" xmlns:xlink="http://www.w3.org/1999/xlink" x="0px" y="0px"
	 width="152px" height="33px" viewBox="0 0 152 33" enable-background="new 0 0 152 33" xml:space="preserve">
<path fill="#FFFFFF" d="M15.8,31.3c8.5,0,15.3-6.9,15.3-15.3c0-8.5-6.8-15.3-15.3-15.3C7.3,0.7,0.5,7.6,0.5,16
	C0.5,24.5,7.3,31.3,15.8,31.3"/>
<path fill="#231F20" d="M13.4,18.6H19l1.6,1.1h-7.5L9.8,30.1c-3.7-1.4-7.2-4.8-8.6-8.6c-1.5-3.7-1.5-8.2,0-11.9
	C2.7,5.8,6.2,2.4,10,1c3-1.2,7-1.4,10.1-0.4c3.6,1,7,3.6,9,7c2.2,3.7,2.8,8.4,1.5,12.7c-0.9,2.8-2.6,5.5-5,7.4l-4.2-6.9l5.8,3.2
	c0,0,0,0,0-0.1l-7.6-6.5l9.8,1.5c0,0,0,0,0,0l-0.1,0l-9.2-3.2l9.6-2.3c0,0,0,0,0,0L20,13.9l7.7-5.8c0,0-0.1,0-0.1,0L19,12.5L23.8,4
	c0,0,0,0,0,0l-6.3,7.3l1.2-9.6c0,0,0,0-0.1,0L15.7,11l-2.5-9.6c0,0-0.1,0-0.1,0l0.7,10L7.9,3.7c0,0,0,0-0.1,0l4.5,8.6L3.9,7.6
	c0,0,0,0,0,0l7.5,6.2l-9.6-1c0,0,0,0,0,0.1l9.3,2.7l-9.3,2.7c0,0,0,0,0,0.1l9.6-1.1l-7.5,6.4c0,0,0,0,0,0l0.1,0l6-3.2l1.4-2.3H13
	l-1.1-0.8l3.7-6L13.4,18.6L13.4,18.6"/>
<g>
	<g>
		<path fill="#231F20" d="M41.2,26.5h-7.5l6-21.5h15.4l-1.5,5.1h-7.9l-1,3.7h7.9l-1.3,4.7h-7.9L41.2,26.5z"/>
		<path fill="#231F20" d="M58.6,26.5h-7.4l4.4-15.7H63L58.6,26.5z M63.4,9.3H56L57.2,5h7.4L63.4,9.3z"/>
	</g>
	<path fill="#231F20" d="M77.9,26.5h-7.3l0.5-1.8c-1.5,1.2-3,2.1-5.4,2.1c-2.4,0-3.9-1.2-3.9-3.6c0-2.7,1.1-6.7,2.7-9.6
		c1.2-2.1,3.2-3.2,5.7-3.2c2.1,0,3.7,0.9,4.3,2.1L76.5,5h7.4L77.9,26.5z M72.3,15.4c-0.7,0-1.3,0.2-1.7,1.1c-0.5,1.3-1,2.6-1,3.9
		c0,0.6,0.4,1.1,1.2,1.1c0.6,0,1-0.2,1.3-0.4l1.5-5.2C73.2,15.7,72.8,15.4,72.3,15.4z"/>
	<path fill="#231F20" d="M98.9,19.6H88.6c-0.2,0.8-0.4,1.4-0.4,2.1c0,0.3,0.1,1.1,1.1,1.1s1.5-0.4,1.9-1.9h7.3c-0.9,4.5-6.2,6-9.5,6
		c-4.4,0-7.8-0.6-7.8-4.9c0-2.3,1.2-6.2,2.7-8.2c1.9-2.5,5.1-3.4,8.1-3.4c4.6,0,7.6,1,7.6,4.9C99.7,16.2,99.3,18.3,98.9,19.6z
		 M91.5,14.3c-0.9,0-1.6,0.6-2,2.2h3.1c0.1-0.3,0.2-0.8,0.2-1.1C92.8,14.6,92.2,14.3,91.5,14.3z"/>
	<path fill="#231F20" d="M106.4,26.5h-7.4l6-21.5h7.4L106.4,26.5z"/>
	<g>
		<path fill="#231F20" d="M116.2,26.5h-7.4l4.4-15.7h7.4L116.2,26.5z M121,9.3h-7.4l1.2-4.3h7.4L121,9.3z"/>
		<path fill="#231F20" d="M134.4,10.8l0.6,3.5h-5.7l-1.7,6c-0.1,0.5-0.3,1-0.3,1.4c0,0.7,0.3,0.9,1.3,0.9h1.6l-1.1,3.9h-6.6
			c-2.2,0-3-1.1-3-2.7c0-0.7,0.1-1.4,0.3-2.2l4-14.3h7.4l-1,3.5H134.4z"/>
	</g>
</g>
<g>
	<g>
		<path fill="#231F20" d="M33.5,28.9l1.9,0l-1.2,3.9l-1.8,0L33.5,28.9z"/>
		<path fill="#231F20" d="M40,28.9l2.7,0l0.7,2.6h0l0.8-2.6l1.6,0l-1.2,3.9l-2.6,0L41.3,30h0l-0.8,2.8l-1.6,0L40,28.9z"/>
		<path fill="#231F20" d="M49.3,28.9l2,0l0.4,2.4l1.9-2.4l1.9,0l-3.1,3.9l-2.3,0L49.3,28.9z"/>
		<path fill="#231F20" d="M59,28.9l4.2,0L63,29.7l-2.4,0l-0.2,0.8l2.3,0l-0.2,0.7l-2.3,0L59.9,32l2.4,0l-0.2,0.8l-4.2,0L59,28.9z"/>
		<path fill="#231F20" d="M77.1,29.8l-1.4,0l0.3-0.9l4.7,0l-0.3,0.9l-1.4,0l-0.9,2.9l-1.9,0L77.1,29.8z"/>
		<path fill="#231F20" d="M84.6,28.9l2.8,0l0.1,2.6h0l1.7-2.6l2.8,0l-1.2,3.9l-1.7,0l0.9-2.9h0l-2.1,2.9l-1.8,0l-0.3-2.9h0L85,32.7
			h-1.6L84.6,28.9z"/>
		<path fill="#231F20" d="M103.8,28.9l2.7,0l0.7,2.6h0l0.8-2.6h1.6l-1.2,3.9l-2.6,0l-0.7-2.8h0l-0.8,2.8l-1.6,0L103.8,28.9z"/>
		<path fill="#231F20" d="M114.1,29.8l-1.4,0l0.3-0.9l4.7,0l-0.3,0.9l-1.4,0l-0.9,2.9l-1.9,0L114.1,29.8z"/>
	</g>
</g>
<g>
	<path fill="none" d="M146.8,24.8c0-0.3-0.3-0.3-0.5-0.3h-0.3v0.6h0.3C146.5,25.2,146.8,25.1,146.8,24.8z"/>
	<path fill="none" d="M146.3,23.7c-0.9,0-1.7,0.7-1.7,1.7s0.7,1.7,1.7,1.7c0.9,0,1.7-0.7,1.7-1.7S147.2,23.7,146.3,23.7z
		 M146.8,26.5l-0.6-0.9h-0.3v0.9h-0.4v-2.3h0.9c0.6,0,0.8,0.2,0.8,0.7c0,0.4-0.2,0.6-0.6,0.6l0.6,1H146.8z"/>
	<path fill="#231F20" d="M146.3,23.3c-1.1,0-2,0.9-2,2c0,1.1,0.9,2,2,2c1.1,0,2-0.9,2-2C148.3,24.2,147.4,23.3,146.3,23.3z
		 M146.3,27c-0.9,0-1.7-0.7-1.7-1.7s0.7-1.7,1.7-1.7c0.9,0,1.7,0.7,1.7,1.7S147.2,27,146.3,27z"/>
	<path fill="#231F20" d="M147.1,24.9c0-0.4-0.2-0.6-0.7-0.6h-0.8v2.1h0.4v-0.9h0.3l0.5,0.9h0.4l-0.5-0.9
		C146.8,25.4,147.1,25.3,147.1,24.9z M145.9,25.2v-0.6h0.3c0.2,0,0.5,0,0.5,0.3s-0.3,0.3-0.5,0.3H145.9z"/>
</g>
<path d="M68.9,30c0,0,0-0.1,0-0.2c0.1-0.2,0.3-0.3,0.7-0.3c0.2,0,0.6,0,0.7,0.1c0.1,0.1,0.1,0.2,0.1,0.3H72c0.2-0.7-0.2-1.1-2.1-1.1
	c-1.8,0-2.8,0.4-3,1.2c-0.1,0.2-0.1,0.5,0.1,0.7c0.5,0.5,2.5,0.6,2.7,0.9c0,0,0,0.1,0,0.2c-0.1,0.3-0.5,0.4-0.9,0.4
	c-0.2,0-0.6-0.1-0.7-0.2c-0.1-0.1-0.1-0.3,0-0.4l-1.7,0c-0.2,0.6-0.2,1.2,2.1,1.2c2,0,2.9-0.5,3.2-1.3c0.1-0.4,0-0.6-0.1-0.7
	C71.1,30.5,69.1,30.3,68.9,30z"/>
<path d="M95.8,28.9l4.2,0l-0.2,0.8l-2.4,0l-0.2,0.8l2.3,0l-0.2,0.7l-2.3,0L96.6,32l2.4,0l-0.2,0.8l-4.2,0L95.8,28.9z"/>
<path fill="#231F20" d="M144.4,10.8l-4,8.7l0.1-8.7H133l1.4,15.7c-0.2,0.9-0.5,1.4-1.1,1.7c-0.6,0.3-2.1,0.2-2.6,0.2l-0.1,0
	l-1.2,4.3l5.1,0c3,0,4.5-1.5,6.6-4.8l10.8-17H144.4z"/>
<path d="M122.4,30c0,0,0-0.1,0-0.2c0.1-0.2,0.3-0.3,0.7-0.3c0.2,0,0.6,0,0.7,0.1c0.1,0.1,0.1,0.2,0.1,0.3h1.6
	c0.2-0.7-0.2-1.1-2.1-1.1c-1.8,0-2.8,0.4-3,1.2c-0.1,0.2-0.1,0.5,0.1,0.7c0.5,0.5,2.5,0.6,2.7,0.9c0,0,0,0.1,0,0.2
	c-0.1,0.3-0.5,0.4-0.9,0.4c-0.2,0-0.6-0.1-0.7-0.2c-0.1-0.1-0.1-0.3,0-0.4l-1.7,0c-0.2,0.6-0.2,1.2,2.1,1.2c2,0,2.9-0.5,3.2-1.3
	c0.1-0.4,0-0.6-0.1-0.7C124.6,30.4,122.7,30.3,122.4,30z"/>
<g>
</g>
<g>
</g>
<g>
</g>
<g>
</g>
<g>
</g>
<g>
</g>
</svg>
