<?xml version="1.0" encoding="utf-8"?>
<!-- Generator: Adobe Illustrator 16.0.0, SVG Export Plug-In . SVG Version: 6.00 Build 0)  -->
<!DOCTYPE svg PUBLIC "-//W3C//DTD SVG 1.1//EN" "http://www.w3.org/Graphics/SVG/1.1/DTD/svg11.dtd">
<svg version="1.1" id="Layer_1" xmlns="http://www.w3.org/2000/svg" xmlns:xlink="http://www.w3.org/1999/xlink" x="0px" y="0px"
	 width="222.202px" height="52px" viewBox="0 0 222.202 52" enable-background="new 0 0 222.202 52" xml:space="preserve">
<g>
	<polygon fill="#FFFFFF" points="35.6,16.6 20.801,16.6 22.801,9.6 37.6,9.6 40.203,0 11.401,0 0,40.4 14.203,40.4 18.401,25.4 
		33.203,25.4 	"/>
	<polygon fill="#FFFFFF" points="58.203,0 44.203,0 42,8.199 55.801,8.199 	"/>
	<polygon fill="#FFFFFF" points="41.203,11 32.801,40.4 46.801,40.4 55.203,11 	"/>
	<path fill="#FFFFFF" d="M80.401,0l-4,14.199c-1.198-2.199-4-3.799-8-3.799c-4.6,0-8.399,2-10.6,6c-3,5.199-5,12.799-5,18
		c0,4.6,2.799,6.799,7.4,6.799c4.397,0,7.198-1.6,10-4l-1,3.201h13.6L94.202,0H80.401L80.401,0z M72,30.6
		c-0.6,0.4-1.199,0.801-2.4,0.801c-1.397,0-2.199-1-2.199-2.201c0-2.398,1-4.799,2-7.398c0.802-1.801,2-2.201,3.199-2.201
		c0.801,0,1.801,0.4,2.201,1.201L72,30.6z"/>
	<path fill="#FFFFFF" d="M122.402,27.6C123.204,25.2,124,21.2,124,19.401c0-7.4-5.599-9.201-14.198-9.201
		c-5.6,0-11.801,1.801-15.201,6.4c-3,3.801-5.199,11-5.199,15.4c0,8,6.4,9.199,14.802,9.199c6.197,0,16-2.799,17.796-11.199h-13.599
		c-0.801,2.801-1.6,3.6-3.6,3.6s-2-1.6-2-2.199c0-1.2,0.4-2.399,0.799-3.801H122.402L122.402,27.6z M108.401,17.6
		c1.4,0,2.4,0.4,2.4,2.201c0,0.6-0.201,1.398-0.4,2H104.6C105.6,18.801,106.801,17.6,108.401,17.6z"/>
	<polygon fill="#FFFFFF" points="133.8,0 122.402,40.4 136.402,40.4 147.8,0 	"/>
	<polygon fill="#FFFFFF" points="166.204,0 152.204,0 150,8.199 163.8,8.199 	"/>
	<polygon fill="#FFFFFF" points="149.204,11 141,40.4 154.8,40.4 163.204,11 	"/>
	<path fill="#FFFFFF" d="M211.204,34.4c-2,0-3.802,1.799-3.802,3.799S209.204,42,211.204,42S215,40.199,215,38.199
		S213.402,34.4,211.204,34.4z M211.204,41.4c-1.802,0-3.203-1.4-3.203-3.201C208,36.4,209.402,35,211.204,35
		c1.797,0,3.198,1.4,3.198,3.199C214.402,40,213,41.4,211.204,41.4z"/>
	<path fill="#FFFFFF" d="M212.8,37.4c0-0.801-0.398-1.201-1.398-1.201H210v4h0.601v-1.6h0.603l1,1.6H213l-1-1.6
		C212.402,38.4,212.8,38.199,212.8,37.4z M210.601,38v-1h0.603c0.397,0,1,0,1,0.6c0,0.601-0.401,0.601-1,0.601L210.601,38
		L210.601,38z"/>
	<path fill="#FFFFFF" d="M207.8,11l-7.598,16.4l0.199-16.4H189h-2.599h-5l1.802-6.6h-14l-7.603,26.799
		C161.204,32.801,161,34,161,35.4c0,3,1.602,5,5.602,5H179l2-7.201h-2.598c-1.801,0-2.402-0.398-2.402-1.799
		c0-0.801,0.203-1.801,0.402-2.601l3.199-11.2H187l2,22.8c-0.398,1.8-1,2.601-2,3.199c-1.199,0.601-3.797,0.4-4.797,0.4H182
		l-2.199,8h9.602c5.599,0,8.398-2.801,12.398-9l20.402-32H207.8L207.8,11z"/>
</g>
</svg>
