<?xml version="1.0" encoding="utf-8"?>
<!-- Generator: Adobe Illustrator 16.0.0, SVG Export Plug-In . SVG Version: 6.00 Build 0)  -->
<!DOCTYPE svg PUBLIC "-//W3C//DTD SVG 1.1//EN" "http://www.w3.org/Graphics/SVG/1.1/DTD/svg11.dtd">
<svg version="1.1" id="Layer_1" xmlns="http://www.w3.org/2000/svg" xmlns:xlink="http://www.w3.org/1999/xlink" x="0px" y="0px"
	 width="111px" height="25.9px" viewBox="273.8 362.5 111 25.9" enable-background="new 273.8 362.5 111 25.9" xml:space="preserve"
	>
<g>
	<polygon fill="#FFFFFF" points="291.5,370.7 284.2,370.7 285.1,367.3 292.5,367.3 293.9,362.5 279.4,362.5 273.8,382.7 
		280.8,382.7 282.9,375.1 290.4,375.1 	"/>
	<polygon fill="#FFFFFF" points="302.8,362.5 295.8,362.5 294.7,366.5 301.7,366.5 	"/>
	<polygon fill="#FFFFFF" points="294.3,367.9 290.2,382.7 297.2,382.7 301.3,367.9 	"/>
	<path fill="#FFFFFF" d="M313.9,362.5l-1.9,7.1c-0.6-1.1-2-1.9-4-1.9c-2.3,0-4.2,1-5.3,3c-1.5,2.7-2.5,6.5-2.5,9
		c0,2.3,1.4,3.4,3.7,3.4c2.3,0,3.6-0.8,5-2l-0.5,1.6h6.9l5.7-20.2L313.9,362.5L313.9,362.5z M309.7,377.7c-0.3,0.2-0.6,0.3-1.2,0.3
		c-0.7,0-1.1-0.5-1.1-1.1c0-1.2,0.5-2.4,1-3.7c0.3-0.8,1-1.1,1.6-1.1c0.5,0,0.8,0.2,1.1,0.6L309.7,377.7z"/>
	<path fill="#FFFFFF" d="M334.9,376.2c0.4-1.2,0.7-3.2,0.7-4.1c0-3.7-2.8-4.6-7.1-4.6c-2.8,0-5.9,0.8-7.6,3.2
		c-1.5,1.9-2.5,5.6-2.5,7.7c0,4,3.2,4.6,7.4,4.6c3.1,0,8-1.4,8.9-5.6h-6.9c-0.4,1.4-0.8,1.8-1.8,1.8s-1-0.7-1-1.1
		c0-0.6,0.2-1.2,0.4-1.9H334.9L334.9,376.2z M328,371.3c0.7,0,1.2,0.2,1.2,1.1c0,0.3-0.1,0.7-0.2,1h-2.9
		C326.6,371.9,327.1,371.3,328,371.3z"/>
	<polygon fill="#FFFFFF" points="340.7,362.5 335,382.7 342,382.7 347.6,362.5 	"/>
	<polygon fill="#FFFFFF" points="356.9,362.5 349.9,362.5 348.7,366.5 355.7,366.5 	"/>
	<polygon fill="#FFFFFF" points="348.4,367.9 344.2,382.7 351.2,382.7 355.3,367.9 	"/>
	<path fill="#FFFFFF" d="M379.4,379.7c-1,0-1.9,0.8-1.9,1.9c0,1,0.9,1.9,1.9,1.9s1.9-0.8,1.9-1.9
		C381.4,380.6,380.5,379.7,379.4,379.7z M379.4,383.2c-0.9,0-1.6-0.7-1.6-1.6c0-0.8,0.7-1.6,1.6-1.6c0.8,0,1.6,0.7,1.6,1.6
		C381,382.4,380.3,383.2,379.4,383.2z"/>
	<path fill="#FFFFFF" d="M380.2,381.2c0-0.4-0.2-0.6-0.7-0.6h-0.7v2h0.3v-0.8h0.3l0.5,0.8h0.4l-0.5-0.8
		C380,381.7,380.2,381.5,380.2,381.2z M379.1,381.5v-0.6h0.3c0.2,0,0.5,0,0.5,0.3c0,0.3-0.2,0.3-0.5,0.3H379.1L379.1,381.5z"/>
	<path fill="#FFFFFF" d="M377.7,367.9l-3.8,8.2l0.1-8.2h-5.7H367h-2.5l0.9-3.3h-7l-3.8,13.4c-0.2,0.7-0.3,1.4-0.3,2
		c0,1.5,0.8,2.5,2.8,2.5h6.2l1-3.6h-1.5c-1,0-1.2-0.2-1.2-0.8c0-0.3,0.1-0.9,0.2-1.3l1.6-5.6h3.7l1,11.4c-0.2,0.8-0.5,1.4-1,1.6
		c-0.6,0.3-1.9,0.2-2.4,0.2h-0.1l-1.1,4h4.8c2.8,0,4.2-1.4,6.2-4.5l10.1-16L377.7,367.9L377.7,367.9z"/>
</g>
</svg>
