<?xml version="1.0" encoding="utf-8"?>
<!-- Generator: Adobe Illustrator 16.0.0, SVG Export Plug-In . SVG Version: 6.00 Build 0)  -->
<!DOCTYPE svg PUBLIC "-//W3C//DTD SVG 1.1//EN" "http://www.w3.org/Graphics/SVG/1.1/DTD/svg11.dtd">
<svg version="1.1" id="Layer_1" xmlns="http://www.w3.org/2000/svg" xmlns:xlink="http://www.w3.org/1999/xlink" x="0px" y="0px"
	 width="10px" height="12px" viewBox="1.4 2.2 10 12" enable-background="new 1.4 2.2 10 12" xml:space="preserve">
<path fill="#FFFFFF" d="M11.3,7.1h-1.2V5.6c0-0.9-0.3-1.8-1-2.4c-0.7-0.6-1.7-1-2.7-1c-1.1,0-2,0.4-2.7,1c-0.7,0.6-1,1.5-1,2.4v1.6
	H1.4l0,5.7c0,0.7,0.6,1.3,1.4,1.3H10c0.8,0,1.4-0.6,1.4-1.3L11.3,7.1z M5.1,6c0-0.4,0-0.8,0.3-1c0.2-0.3,0.6-0.4,1-0.4
	c0.5,0,0.7,0.1,0.9,0.4c0.2,0.3,0.3,0.6,0.3,1v1.1H5.1V6z"/>
</svg>
